<svg xmlns="http://www.w3.org/2000/svg" viewBox="0 0 27.79 28">
    <defs>
        <style>.cls-1 {fill:currentColor;fill-rule:evenodd;}</style>
    </defs>
    <path class="cls-1" d="M27.66,24.16l-7-18.73a2,2,0,0,0-2.57-1.18l-3.26,1.2a2,2,0,0,0-.87.64V2a2,2,0,0,0-2-2H8A2,2,0,0,0,6,2V7H2A2,2,0,0,0,0,9V26a2,2,0,0,0,2,2H6a1.87,1.87,0,0,0,1-.28A1.91,1.91,0,0,0,8,28h4a2,2,0,0,0,2-2V8.81l6.7,17.93a2,2,0,0,0,2.58,1.19l3.26-1.2A2,2,0,0,0,27.66,24.16ZM2,26V9H6V26Zm10,0H8V9s0-.06,0-.09V2h4Zm10.58.05-7-18.73,3.26-1.2,7,18.73Z"></path>
</svg>