<svg width="115" height="19" viewBox="0 0 115 19" fill="none" xmlns="http://www.w3.org/2000/svg">
<path d="M110.807 0C107.188 0 105.378 3.15966 105.378 9.4763C105.378 15.8233 107.288 19 111.116 19C112.295 19 113.267 18.7723 114.037 18.3193V13.2421C114.037 10.1633 112.944 8.62571 110.757 8.62571C110.448 8.62571 110.151 8.65097 109.861 8.69813V10.739C109.946 10.7239 110.091 10.7153 110.297 10.7153C110.705 10.7153 110.996 10.8524 111.166 11.1261C111.388 11.468 111.5 12.1026 111.5 13.0222V16.9091C111.432 16.926 111.34 16.9341 111.218 16.9341C109.153 16.9341 108.12 14.4464 108.12 9.4763C108.12 4.5365 109.185 2.06854 111.321 2.06854C111.644 2.06854 112.046 2.1169 112.525 2.21206V0.221204C111.98 0.0738372 111.406 -1.90021e-06 110.807 0ZM0 0.12376V18.8749H2.61077V8.86929L4.35312 13.8003H5.52901L7.26999 8.86929V18.8749H9.9126V9.49934V0.123769H8.60375L4.93898 9.88974L1.30608 0.123769L0 0.12376ZM36.8402 0.123759V18.8749H39.4537V8.18988L43.8844 18.8749H45.1918V0.123769H42.552V10.8852L38.1476 0.123769L36.8402 0.123759ZM55.4922 0.123759V18.8749H58.1071V8.18988L62.5378 18.8749H63.8439V0.123769H61.204V10.8852L56.7997 0.123769L55.4922 0.123759ZM74.1429 0.123759V18.8749H76.8617V0.123769L74.1429 0.123759ZM87.1358 0.123759V18.8749H89.7479V8.18988L94.1814 18.8749H95.4874V0.123769H92.8476V10.8852L88.4418 0.123769L87.1358 0.123759ZM20.6811 0.125089L17.6839 18.8749H20.0939L20.5551 15.5489H23.2683L23.7559 18.8749H26.2918L23.2974 0.125089H20.6811ZM21.911 5.63944L22.9886 13.483H20.8362L21.911 5.63944Z" fill="#333333"/>
</svg>
