<svg width="16" height="16" viewBox="0 0 16 16" fill="none" xmlns="http://www.w3.org/2000/svg">
<path d="M15.8928 14.0717L12.4 10.5789C12.3315 10.5104 12.2384 10.472 12.1414 10.472H11.3904C12.2925 9.36672 12.8342 7.95552 12.8342 6.41728C12.8342 2.87296 9.96096 0 6.41728 0C2.87296 0 0 2.87296 0 6.41728C0 9.9616 2.87296 12.8346 6.41728 12.8346C7.9552 12.8346 9.3664 12.2928 10.4717 11.3907V12.1418C10.4717 12.2387 10.5101 12.3318 10.5786 12.4003L14.0717 15.8931C14.2144 16.0358 14.4458 16.0358 14.5888 15.8931L15.8928 14.5888C15.9613 14.5203 16 14.4272 16 14.3302C16 14.2333 15.9613 14.1402 15.8928 14.0717ZM6.41728 10.4723C4.1776 10.4723 2.36192 8.65696 2.36192 6.41728C2.36192 4.1776 4.1776 2.36192 6.41728 2.36192C8.65696 2.36192 10.4723 4.17728 10.4723 6.41696C10.4723 8.65664 8.65664 10.4723 6.41728 10.4723Z" fill="#333333"/>
</svg>
