<svg class="avatar-icon" width="22" height="30" viewBox="0 0 22 30" fill="none" xmlns="http://www.w3.org/2000/svg">
    <path fill-rule="evenodd" clip-rule="evenodd" d="M12.0503 3.15739C8.57031 2.66025 5.71847 5.54102 6.14142 9.09382L6.14288 9.10608L6.14281 9.10609C6.38912 11.4051 8.29151 13.3237 10.7068 13.5736L10.7164 13.5746L10.7259 13.5757C14.1535 13.9937 17.068 11.1652 16.6576 7.65433C16.3178 5.31573 14.3858 3.40828 12.0869 3.16197L12.0686 3.16L12.0503 3.15739ZM12.3291 1.07592C7.4196 0.386074 3.48311 4.49739 4.05542 9.33598C4.41147 12.6311 7.10307 15.3074 10.4811 15.6614C15.2455 16.2365 19.3224 12.2742 18.7414 7.39382L18.74 7.38162L18.7382 7.36945C18.274 4.11966 15.6177 1.43722 12.3291 1.07592Z" fill="currentColor"></path>
    <path fill-rule="evenodd" clip-rule="evenodd" d="M15.3921 16.8559C16.4921 16.2344 17.7592 16.4075 18.6721 17.1683L18.6965 17.1886L18.7196 17.2103C20.6274 19.0059 21.75 21.4813 21.75 24.275C21.75 25.2619 21.2671 26.0629 20.5982 26.6639C19.9445 27.2511 19.0715 27.6915 18.1244 28.0225C16.2242 28.6863 13.7603 29 11.35 29C8.93957 29 6.47573 28.6863 4.57551 28.0225C3.62836 27.6915 2.7554 27.2511 2.10175 26.6639C1.43283 26.0629 0.949951 25.2619 0.949951 24.275C0.949951 21.487 2.06871 19.0079 4.08191 17.2084C4.95575 16.3588 6.35997 16.2646 7.40762 16.8558C8.54564 17.4662 9.9693 17.825 11.4 17.825C12.8305 17.825 14.2541 17.4662 15.3921 16.8559ZM17.3065 18.7643C17.0281 18.5441 16.7105 18.5211 16.4209 18.6866L16.4094 18.6932L16.3978 18.6995C14.9374 19.4858 13.1652 19.925 11.4 19.925C9.63474 19.925 7.86249 19.4858 6.40215 18.6995L6.39049 18.6932L6.379 18.6866C6.03783 18.4917 5.66684 18.593 5.54241 18.7174L5.5206 18.7392L5.49753 18.7597C3.92361 20.1588 3.04995 22.0723 3.04995 24.275C3.04995 24.513 3.15144 24.7839 3.50519 25.1017C3.87419 25.4332 4.46217 25.7584 5.26814 26.04C6.87417 26.6011 9.08533 26.9 11.35 26.9C13.6146 26.9 15.8257 26.6011 17.4318 26.04C18.2377 25.7584 18.8257 25.4332 19.1947 25.1017C19.5485 24.7839 19.65 24.513 19.65 24.275C19.65 22.0815 18.7828 20.1666 17.3065 18.7643Z" fill="currentColor"></path>
</svg>